<?xml version="1.0" encoding="utf-8"?>
<!-- Generator: Adobe Illustrator 21.1.0, SVG Export Plug-In . SVG Version: 6.00 Build 0)  -->
<svg version="1.1" id="Ebene_1" xmlns="http://www.w3.org/2000/svg" xmlns:xlink="http://www.w3.org/1999/xlink" x="0px" y="0px"
	 viewBox="0 0 930 179.8" style="enable-background:new 0 0 930 179.8;" xml:space="preserve">
<style type="text/css">
	.st0{fill:#1C696D;}
</style>
<g>
	<path class="st0" d="M422.8,43.3h17.4v37.2l39.7-37.2h26l-47.2,46.5l47.1,46.5H481l-40.3-37.2l-0.6,37.2h-17.4L422.8,43.3z"/>
	<path class="st0" d="M598.9,104.7c0,0,12.4,21.1,18.6,31.6h-19.8l-17.4-31h-37.8v31h-16.7v-93h73.1c8.2,0,14.9,6.7,14.9,14.9v31.6
		C613.8,98,607.1,104.7,598.9,104.7L598.9,104.7z M542.5,59.5V88h44.2c5.4,0,9.8-4.4,9.8-9.8v-8.9c0-5.4-4.4-9.8-9.8-9.8H542.5z"/>
	<path class="st0" d="M653.5,42.1v94.2h-16.1V42.1H653.5z"/>
	<path class="st0" d="M732.8,101.6l42.3-55.9c3.5-4.7,11-2.2,11,3.7v86.9h-17.4V80.5l-31.1,39.7c-2.4,3.1-7.2,3.1-9.6,0l-32.3-41v57
		h-16.1V49.4c0-5.9,7.5-8.4,11-3.7L732.8,101.6z"/>
	<path class="st0" d="M830.5,42.1v94.2h-16.1V42.1H830.5z"/>
</g>
<path class="st0" d="M899.7,0H30.3C13.6,0,0,13.6,0,30.3l0,119.2c0,16.7,13.6,30.3,30.3,30.3h869.4c16.7,0,30.3-13.6,30.3-30.3V30.3
	C930,13.6,916.4,0,899.7,0z M94.3,134.5H51.4c-2.5,0-3.5-1.6-3.5-3.7v-8.2c0-5.1,2.5-8.7,8.8-8.7h39.1c4.6,0,6.2-1.6,6.2-3.6
	c0-2.6-1.6-4.1-6.7-5.2l-25.2-5.6C54.3,96,46.4,88.2,46.4,75.3c0-14.4,10.3-25.8,29.8-25.8h43.9c2.5,0,3.5,1.6,3.5,3.7v8.1
	c0,5.1-2.5,8.8-8.8,8.8H77.4c-4.6,0-6.2,1.6-6.2,3.6c0,2.6,1.6,4.1,6.7,5.2l25.2,5.6c15.7,3.5,23.7,11.3,23.7,25.2
	C126.7,123.2,117.4,134.5,94.3,134.5z M159.7,125.7c0,6.3-3.6,8.8-8.8,8.8h-12.8c-2.1,0-3.7-1-3.7-3.5V20.8c0-6.3,3.6-8.8,8.8-8.8
	H156c2,0,3.7,1,3.7,3.5V125.7z M305.8,55.8l-50.4,108.6c-1.2,2.5-2.5,3.6-5.7,3.6h-15.5c-2.1,0-3.6-1-3.6-3.1c0-1,0.5-2,1-3.1
	l17.1-36.1l-38.6-57.1l-19.6,21.1l25.8,38.1c0.9,1.2,1.5,2.1,1.5,3.5c0,2.2-1.5,3.2-4.1,3.2h-17.5c-2.6,0-4-1.2-5.7-3.6l-29.3-42.7
	l32.7-35.1c2.3-2.5,4.4-3.5,8.2-3.5h18.6c4.6,0,6.6,1.1,8.5,4.1l30.7,48.4l22-48.9c1.1-2.5,2.6-3.6,5.7-3.6h15.6
	c2.1,0,3.6,1,3.6,3.1C306.8,53.7,306.2,54.7,305.8,55.8z M886,168H341V12.3h545c16.7,0,30.3,13.6,30.3,30.3v95.1
	C916.3,154.4,902.7,168,886,168z"/>
</svg>
